<svg width="40" height="41" viewBox="0 0 40 41" fill="none" xmlns="http://www.w3.org/2000/svg">
<g clip-path="url(#clip0_2038_7977)">
<path d="M20 40.5C31.0457 40.5 40 31.5457 40 20.5C40 9.4543 31.0457 0.5 20 0.5C8.9543 0.5 0 9.4543 0 20.5C0 31.5457 8.9543 40.5 20 40.5Z" fill="url(#paint0_linear_2038_7977)"/>
<path d="M31.5155 16.4992C31.524 15.7122 31.3226 14.9372 30.9319 14.2539C29.9343 12.525 27.8288 11.6461 24.9984 11.7711C23.6944 9.2875 21.8898 7.92188 19.9062 7.92188C17.9226 7.92188 16.114 9.29062 14.8085 11.7805C12.0741 11.7023 10.0429 12.582 9.06788 14.2703C8.07413 15.9891 8.35695 18.2391 9.86085 20.6148C8.42648 22.943 8.17101 25.1461 9.14601 26.832C10.0835 28.4523 11.9898 29.3266 14.5569 29.3266C14.6577 29.3266 14.7601 29.3266 14.8632 29.3227C16.1648 31.75 17.9484 33.0781 19.9062 33.0781C21.864 33.0781 23.6437 31.75 24.9437 29.3328C25.1124 29.3396 25.2788 29.3432 25.4429 29.3438C28.0101 29.3438 29.9179 28.4688 30.8538 26.8484C31.8312 25.1555 31.5726 22.9492 30.1288 20.6141C31.0491 19.1656 31.5155 17.7656 31.5155 16.4992ZM19.9062 8.85938C21.4343 8.85938 22.8663 9.91875 23.9773 11.857C23.8122 11.8768 23.646 11.8997 23.4788 11.9258C22.4804 10.2422 21.2319 9.32812 19.9062 9.32812C18.5804 9.32812 17.3382 10.2391 16.3398 11.9164C16.172 11.8919 16.0051 11.8708 15.839 11.8531C16.953 9.91719 18.3796 8.85938 19.9062 8.85938ZM22.4905 12.1133C21.6364 12.3045 20.7966 12.5548 19.9773 12.8625C19.1168 12.5417 18.234 12.2845 17.3359 12.093C18.1116 10.9211 19.0163 10.2648 19.9062 10.2648C20.796 10.2648 21.7124 10.9258 22.4905 12.1133ZM9.8796 14.7391C10.6273 13.4445 12.2062 12.7375 14.3663 12.7148H14.4765C14.6616 12.7148 14.8523 12.7195 15.046 12.7297C15.1554 12.7352 15.2655 12.7422 15.3765 12.7516C15.5398 12.7641 15.7038 12.7805 15.8702 12.8008C16.189 12.8383 16.5127 12.8883 16.8413 12.9508C17.4551 13.0679 18.0618 13.2195 18.6585 13.4047C18.4418 13.5016 18.2262 13.6026 18.0116 13.7078C17.5429 13.5792 17.0825 13.4732 16.6304 13.3898C16.3054 13.3305 15.9835 13.2836 15.6679 13.2492C15.5366 13.2344 15.4069 13.2227 15.2773 13.2125C15.2437 13.2125 15.2101 13.207 15.1765 13.2055C14.9234 13.1872 14.6778 13.1784 14.4398 13.1789H14.1749C12.2929 13.2312 10.9312 13.8516 10.2843 14.9711C9.62257 16.1164 9.78898 17.65 10.7421 19.3531C10.6379 19.487 10.5361 19.6211 10.4366 19.7555C9.31632 17.8289 9.11632 16.0617 9.8796 14.7391ZM11.0968 15.4422C11.5288 14.6945 12.503 14.2414 13.839 14.1383C13.5623 15.0184 13.3498 15.9173 13.203 16.8281C12.561 17.3715 11.9563 17.9575 11.3929 18.582C10.7648 17.3234 10.6515 16.2133 11.0937 15.4422H11.0968ZM14.8296 14.1242C14.9523 14.1289 15.078 14.1359 15.2054 14.1461L15.3179 14.1562C15.1648 14.5938 15.0291 15.0484 14.9109 15.5203C14.7129 15.6573 14.5187 15.7964 14.328 15.9375C14.4617 15.3243 14.6291 14.7189 14.8296 14.1242ZM16.2702 14.2805C16.4265 14.307 16.5861 14.3372 16.7491 14.3711L16.5429 14.4883C16.3986 14.5716 16.2551 14.6565 16.1124 14.743C16.1629 14.5852 16.2155 14.4305 16.2702 14.2789V14.2805ZM19.9062 32.1406C18.4077 32.1406 17.0015 31.1211 15.8999 29.25C16.0661 29.2318 16.2338 29.2107 16.403 29.1867C17.3905 30.8 18.6116 31.6719 19.9062 31.6719C21.2007 31.6719 22.428 30.7953 23.4163 29.1781C23.584 29.2047 23.7507 29.2276 23.9163 29.2469C22.8124 31.1187 21.4062 32.1406 19.9062 32.1406ZM17.4062 29.0117C18.2793 28.8259 19.138 28.5778 19.9757 28.2695C20.7739 28.5646 21.5911 28.8055 22.4218 28.9906C21.6585 30.1094 20.7757 30.7344 19.9062 30.7344C19.0366 30.7344 18.1655 30.1203 17.4069 29.0156L17.4062 29.0117ZM30.0405 26.3797C29.2749 27.7078 27.6351 28.4172 25.3937 28.4062C25.2239 28.4062 25.0507 28.4013 24.8741 28.3914C24.7132 28.3828 24.5499 28.3711 24.3859 28.3563C24.2218 28.3414 24.0593 28.3227 23.8937 28.3008C23.5757 28.2602 23.2523 28.2063 22.9257 28.1398C22.3809 28.0306 21.8419 27.894 21.3109 27.7305C20.8687 27.5961 20.4241 27.4422 19.9773 27.2688C19.5304 27.4406 19.0859 27.5938 18.6437 27.7281C18.0691 27.903 17.4854 28.0464 16.8952 28.1578C16.5655 28.2203 16.2405 28.2698 15.9202 28.3063C15.7538 28.3266 15.5882 28.3422 15.4249 28.3547C15.3241 28.3625 15.2241 28.3688 15.1241 28.3742C14.8796 28.3867 14.6405 28.3914 14.4093 28.3875C12.2671 28.3578 10.7015 27.6508 9.95616 26.3633C9.21085 25.0758 9.38507 23.3469 10.446 21.4648C10.5538 21.2727 10.671 21.0789 10.7976 20.8836C10.8569 20.7914 10.9187 20.6992 10.9819 20.6078C11.0741 20.4727 11.171 20.3383 11.271 20.2047C11.4622 19.9479 11.6674 19.693 11.8866 19.4398C12.2435 19.025 12.6213 18.6286 13.0187 18.2523C13.3525 17.9346 13.7043 17.624 14.0741 17.3203C14.2512 17.175 14.4335 17.0312 14.621 16.8891C14.9819 16.6135 15.3564 16.3458 15.7444 16.0859C16.1528 15.8125 16.5752 15.55 17.0116 15.2984C17.371 15.0901 17.7325 14.8943 18.096 14.7109C18.5085 14.5026 18.9226 14.3083 19.3382 14.1281C19.5523 14.0359 19.7655 13.9477 19.9788 13.8648C20.42 13.6914 20.8593 13.5365 21.2968 13.4C21.8505 13.227 22.4127 13.0826 22.9812 12.9672C23.3067 12.9005 23.628 12.8466 23.9452 12.8055C24.1101 12.7828 24.2741 12.7648 24.4366 12.75C24.5991 12.7352 24.7835 12.7195 24.9538 12.7109C25.1241 12.7023 25.2796 12.6977 25.4382 12.6969H25.5234C26.6312 12.6969 27.5905 12.8742 28.3679 13.2164C29.1452 13.5586 29.7405 14.0648 30.1202 14.7234C30.8859 16.0516 30.6819 17.8242 29.5507 19.7602C29.4663 19.907 29.3749 20.0547 29.2788 20.2031C29.1913 20.338 29.0997 20.4729 29.0038 20.6078C28.908 20.7427 28.8103 20.8758 28.7109 21.007C28.5155 21.2622 28.3072 21.5151 28.0859 21.7656C27.6676 22.2408 27.2226 22.6918 26.753 23.1164C26.4135 23.4289 26.0567 23.7307 25.6827 24.0219C25.502 24.1641 25.3179 24.3042 25.1304 24.4422C24.7658 24.7109 24.3869 24.9714 23.9937 25.2234C23.6911 25.4172 23.3819 25.6055 23.0663 25.7883C22.6757 26.0148 22.278 26.2273 21.8812 26.4258C21.4645 26.6341 21.0457 26.8281 20.6249 27.0078C21.0658 27.166 21.5128 27.3067 21.9648 27.4297C22.3606 27.5375 22.7512 27.6286 23.1366 27.7031C23.4611 27.7661 23.7809 27.8167 24.096 27.8547C24.2609 27.875 24.4249 27.8922 24.5866 27.9047L24.6398 27.9094C24.928 27.9312 25.2077 27.943 25.4765 27.943H25.5851C27.5484 27.9211 28.9687 27.2969 29.6319 26.1461C30.2812 25.0219 30.1335 23.525 29.2273 21.8602C29.334 21.7279 29.4382 21.5953 29.5398 21.4625C30.6108 23.3516 30.7913 25.0813 30.0413 26.3797H30.0405ZM28.8234 25.6766C28.3757 26.4523 27.3484 26.9102 25.9327 26.9898C26.1931 26.1844 26.3986 25.3622 26.5476 24.5289C27.2681 23.9451 27.9449 23.3092 28.5726 22.6266C29.1616 23.8492 29.2585 24.9242 28.828 25.6773L28.8234 25.6766ZM24.7155 26.9727C24.6304 26.9656 24.5444 26.9586 24.4577 26.9492C24.589 26.5805 24.7085 26.1977 24.8155 25.8039C25.0166 25.6706 25.214 25.5346 25.4077 25.3961C25.2799 25.934 25.125 26.4652 24.9437 26.9875C24.8694 26.9844 24.7929 26.9797 24.7163 26.9734L24.7155 26.9727ZM23.2429 26.7641C23.3405 26.7102 23.4382 26.6547 23.5351 26.5984L23.5976 26.5617C23.5687 26.6469 23.5382 26.7305 23.5077 26.8141C23.421 26.7992 23.3319 26.782 23.2437 26.7648L23.2429 26.7641Z" fill="white"/>
<path d="M22.8328 25.382C23.2843 25.1216 23.7221 24.8482 24.146 24.5617C24.5268 24.3044 24.894 24.0388 25.2476 23.7648C25.4304 23.6237 25.6093 23.4805 25.7843 23.3351C26.1489 23.0325 26.495 22.7224 26.8226 22.4047C27.1773 22.063 27.508 21.7146 27.8148 21.3594C28.032 21.1104 28.2359 20.8586 28.4265 20.6039C28.5265 20.4719 28.6218 20.3391 28.714 20.2055L28.7445 20.1617C28.9304 19.8904 29.0976 19.6226 29.246 19.3586C30.2085 17.6476 30.3789 16.1062 29.7148 14.9562C29.0507 13.8062 27.6124 13.175 25.6289 13.1594C25.3382 13.1594 25.0359 13.1703 24.7218 13.1922L24.6351 13.1992C24.4742 13.2133 24.3109 13.2297 24.146 13.2508C23.8335 13.2898 23.5151 13.3419 23.1906 13.407C22.7804 13.4851 22.364 13.5851 21.9445 13.7031C21.5054 13.8245 21.0627 13.9661 20.6164 14.1281C20.4039 14.2062 20.1906 14.2844 19.9773 14.3726C19.5632 14.5383 19.1497 14.7206 18.7367 14.9195C18.2351 15.1601 17.7359 15.4226 17.2437 15.707C16.675 16.0351 16.1265 16.3859 15.6031 16.7539C15.2265 17.018 14.8638 17.2911 14.5148 17.5734C14.3341 17.7177 14.158 17.8646 13.9867 18.0141C13.6257 18.3266 13.2838 18.6463 12.9609 18.9734C12.6781 19.2604 12.4119 19.5508 12.1625 19.8445C11.9484 20.0961 11.7473 20.3502 11.5593 20.607C11.4812 20.7112 11.4054 20.818 11.332 20.9273C11.3125 20.9555 11.2937 20.9836 11.2757 21.0109C11.0883 21.2872 10.9149 21.5727 10.7562 21.8664C10.2304 22.8383 9.96323 23.7531 9.96323 24.5695C9.95508 25.1166 10.0929 25.6559 10.3625 26.132C11.0039 27.2437 12.3515 27.8633 14.2132 27.9234C14.3132 27.9265 14.4148 27.9281 14.5179 27.9281C14.7445 27.9281 14.9789 27.92 15.221 27.9039L15.3554 27.8945C15.4742 27.8851 15.5898 27.8742 15.7132 27.8609C16.0304 27.8271 16.3523 27.7807 16.6789 27.7219C17.1085 27.6437 17.546 27.5461 17.9882 27.4273C18.4304 27.3086 18.8804 27.168 19.3312 27.0086C18.9125 26.8305 18.4929 26.6351 18.0757 26.4242C17.6919 26.232 17.3106 26.0263 16.932 25.807C16.5398 25.5805 16.158 25.3448 15.7867 25.1C15.396 24.8432 15.0184 24.5768 14.6539 24.3008C14.4664 24.1601 14.2841 24.0172 14.107 23.8719C13.7346 23.5708 13.3799 23.2622 13.0429 22.9461C12.6448 22.5733 12.2641 22.1823 11.9023 21.7742C11.9679 21.6703 12.0375 21.5656 12.1093 21.4617C12.1304 21.4312 12.1515 21.4 12.1742 21.3695C12.4257 21.6617 12.694 21.9495 12.9789 22.2328C13.3039 22.5578 13.6492 22.8766 14.0125 23.1851C14.1859 23.3346 14.3635 23.4812 14.5453 23.625C14.8973 23.9047 15.2619 24.1763 15.639 24.4398C16.1281 24.7784 16.6369 25.1005 17.1656 25.4062C17.6796 25.7031 18.2007 25.9766 18.7242 26.225C19.1408 26.4234 19.5588 26.6057 19.9781 26.7719C20.3947 26.6068 20.8114 26.4258 21.2281 26.2289C21.7682 25.97 22.3031 25.6877 22.8328 25.382ZM16.7117 26.757C16.5773 26.7836 16.4437 26.8086 16.3109 26.8305C16.264 26.7049 16.2184 26.5771 16.1742 26.4469C16.2703 26.5039 16.3671 26.5601 16.464 26.6164C16.5468 26.6641 16.6289 26.7109 16.7117 26.757ZM14.9601 25.6719C15.0763 26.1135 15.2065 26.5398 15.3507 26.9508L15.2796 26.957C15.1375 26.968 14.9984 26.9758 14.8625 26.9805C14.6692 26.4143 14.5065 25.8382 14.375 25.2547C14.5651 25.3963 14.7601 25.5354 14.9601 25.6719ZM13.2375 24.368C13.3872 25.2458 13.5986 26.112 13.8703 26.9601C12.5554 26.85 11.6046 26.3992 11.1757 25.6601C10.7468 24.9211 10.8375 23.8445 11.4179 22.632C11.9847 23.2509 12.5926 23.8309 13.2375 24.368ZM25.4101 22.4148C25.4656 21.7898 25.4937 21.1461 25.4937 20.4984C25.4937 19.9141 25.471 19.3351 25.425 18.7656C25.5968 18.9141 25.764 19.0656 25.9265 19.218C25.951 19.6409 25.963 20.0677 25.9625 20.4984C25.9625 20.9932 25.9468 21.482 25.9156 21.9648C25.7515 22.1185 25.583 22.269 25.4101 22.4164V22.4148ZM26.8945 20.9797C26.8986 20.8198 26.9005 20.6594 26.9 20.4984V20.2117C27.0148 20.3391 27.125 20.4672 27.232 20.5961C27.1231 20.7252 27.0106 20.8536 26.8945 20.9812V20.9797ZM28.9062 15.4219C29.3539 16.1976 29.2367 17.3164 28.5984 18.5844C27.9754 17.8954 27.3024 17.2533 26.5851 16.6633C26.4385 15.7977 26.232 14.9433 25.9671 14.1062C27.4054 14.182 28.4507 14.6406 28.9062 15.4219ZM24.7976 14.1258C24.8601 14.1211 24.9218 14.1164 24.9835 14.1133C25.1699 14.6641 25.3277 15.2242 25.4562 15.7914C25.2645 15.6523 25.0695 15.5161 24.871 15.3828C24.7609 14.9601 24.6367 14.5492 24.4992 14.1539C24.596 14.1453 24.696 14.1367 24.7945 14.1289L24.7976 14.1258ZM23.5515 14.2914C23.5906 14.3992 23.6296 14.5094 23.6648 14.6203L23.4601 14.5L23.2109 14.3578C23.3218 14.3367 23.4375 14.3148 23.5484 14.2945L23.5515 14.2914ZM21.8648 14.7039C22.2424 14.894 22.6179 15.0969 22.9914 15.3125C23.3507 15.5208 23.701 15.7357 24.0421 15.957C24.4307 16.2101 24.8062 16.4719 25.1687 16.7422C25.3552 16.8812 25.5375 17.0221 25.7156 17.1648C26.0859 17.4612 26.439 17.7656 26.775 18.0781C27.2417 18.5069 27.6836 18.9621 28.0984 19.4414C28.0578 19.5049 28.0156 19.5682 27.9718 19.6312C27.9234 19.7016 27.8742 19.7719 27.8234 19.8422C27.5187 19.4851 27.1898 19.1328 26.8382 18.7891C26.5132 18.4693 26.1695 18.1568 25.807 17.8516C25.6335 17.7062 25.4562 17.5617 25.275 17.4203C24.925 17.1448 24.5604 16.8779 24.1812 16.6195C23.7226 16.307 23.2437 16.0039 22.7531 15.7203C22.2468 15.4281 21.7335 15.1586 21.2179 14.9133C21.4343 14.8398 21.6484 14.7703 21.8617 14.707L21.8648 14.7039ZM12.7585 20.5945C12.8101 20.532 12.8625 20.4695 12.9148 20.407V20.7812C12.8601 20.7219 12.807 20.6601 12.7554 20.5976L12.7585 20.5945ZM13.8914 21.7961C13.8664 21.368 13.8539 20.9349 13.8539 20.4969C13.8539 20.1239 13.863 19.7539 13.8812 19.3867C14.0421 19.2305 14.2078 19.076 14.3781 18.9234C14.3406 19.4414 14.3218 19.9672 14.3218 20.4969C14.3218 21.0906 14.3453 21.6781 14.3921 22.2562C14.2182 22.1068 14.0502 21.9544 13.8882 21.7992L13.8914 21.7961ZM17.6414 24.5836C16.8725 24.14 16.1335 23.6468 15.4289 23.107C15.2138 21.4344 15.2062 19.7416 15.4062 18.0672C16.8098 16.978 18.3493 16.0764 19.9859 15.3851C21.5574 16.0456 23.0403 16.8999 24.4 17.9281C24.5059 18.7813 24.5581 19.6403 24.5562 20.5C24.5576 21.4189 24.4971 22.3369 24.375 23.2476C23.7327 23.7276 23.0625 24.169 22.3679 24.5695C21.5995 25.0133 20.803 25.4066 19.9835 25.7469C19.1769 25.4108 18.3928 25.0233 17.6359 24.5867L17.6414 24.5836Z" fill="white"/>
<path d="M20.039 17.8367C19.5038 17.8367 18.9805 17.9954 18.5355 18.2928C18.0905 18.5902 17.7436 19.0128 17.5388 19.5073C17.3339 20.0018 17.2803 20.546 17.3848 21.0709C17.4892 21.5959 17.7469 22.0781 18.1254 22.4566C18.5039 22.8351 18.9861 23.0928 19.5111 23.1972C20.036 23.3017 20.5801 23.2481 21.0747 23.0432C21.5692 22.8384 21.9918 22.4915 22.2892 22.0465C22.5865 21.6015 22.7453 21.0782 22.7453 20.543C22.7446 19.8254 22.4593 19.1374 21.9519 18.6301C21.4446 18.1227 20.7566 17.8374 20.039 17.8367ZM20.039 22.3117C19.6892 22.3117 19.3472 22.208 19.0563 22.0136C18.7655 21.8193 18.5388 21.543 18.4049 21.2199C18.271 20.8967 18.236 20.541 18.3043 20.1979C18.3725 19.8548 18.541 19.5397 18.7883 19.2923C19.0357 19.0449 19.3508 18.8765 19.6939 18.8082C20.0371 18.74 20.3927 18.775 20.7159 18.9089C21.0391 19.0427 21.3153 19.2694 21.5097 19.5603C21.704 19.8512 21.8078 20.1932 21.8078 20.543C21.8074 21.012 21.6209 21.4616 21.2893 21.7932C20.9576 22.1248 20.508 22.3113 20.039 22.3117Z" fill="white"/>
</g>
<defs>
<linearGradient id="paint0_linear_2038_7977" x1="5.85781" y1="6.35781" x2="34.1422" y2="34.6422" gradientUnits="userSpaceOnUse">
<stop stop-color="#FF468C"/>
<stop offset="1" stop-color="#DD2A7C"/>
</linearGradient>
<clipPath id="clip0_2038_7977">
<rect width="40" height="40" fill="white" transform="translate(0 0.5)"/>
</clipPath>
</defs>
</svg>
